<?xml version="1.0" encoding="UTF-8" standalone="no"?>
<!-- Created with Inkscape (http://www.inkscape.org/) -->

<svg
   width="210mm"
   height="297mm"
   viewBox="0 0 210 297"
   version="1.1"
   id="svg5"
   inkscape:version="1.1.2 (b8e25be833, 2022-02-05)"
   sodipodi:docname="Aruco2x2.svg"
   inkscape:export-filename="D:\工作\0 -  项目 - 复合机器人机器视觉\1 - Aubovision视觉模块开发\2D视觉\Aruco2x2.png"
   inkscape:export-xdpi="96"
   inkscape:export-ydpi="96"
   xmlns:inkscape="http://www.inkscape.org/namespaces/inkscape"
   xmlns:sodipodi="http://sodipodi.sourceforge.net/DTD/sodipodi-0.dtd"
   xmlns="http://www.w3.org/2000/svg"
   xmlns:svg="http://www.w3.org/2000/svg">
  <sodipodi:namedview
     id="namedview7"
     pagecolor="#505050"
     bordercolor="#eeeeee"
     borderopacity="1"
     inkscape:pageshadow="0"
     inkscape:pageopacity="0"
     inkscape:pagecheckerboard="0"
     inkscape:document-units="mm"
     showgrid="false"
     inkscape:zoom="1.9349326"
     inkscape:cx="416.29356"
     inkscape:cy="227.6565"
     inkscape:window-width="1920"
     inkscape:window-height="1058"
     inkscape:window-x="308"
     inkscape:window-y="-1080"
     inkscape:window-maximized="0"
     inkscape:current-layer="layer1" />
  <defs
     id="defs2" />
  <g
     inkscape:label="图层 1"
     inkscape:groupmode="layer"
     id="layer1">
    <g
       style="shape-rendering:crispEdges"
       id="g923"
       transform="matrix(3.1428571,0,0,3.1428571,50,50)">
      <rect
         x="0"
         y="0"
         width="7"
         height="7"
         fill="#000000"
         id="rect863" />
      <rect
         width="1"
         height="1"
         x="1"
         y="1"
         fill="#ffffff"
         id="rect865" />
      <rect
         width="1"
         height="1"
         x="3"
         y="1"
         fill="#ffffff"
         id="rect867" />
      <rect
         width="1"
         height="1"
         x="2"
         y="2"
         fill="#ffffff"
         id="rect869" />
      <rect
         width="1"
         height="1.5"
         x="2"
         y="2"
         fill="#ffffff"
         id="rect871" />
      <rect
         width="1.5"
         height="1"
         x="4"
         y="2"
         fill="#ffffff"
         id="rect873" />
      <rect
         width="1"
         height="1"
         x="5"
         y="2"
         fill="#ffffff"
         id="rect875" />
      <rect
         width="1.5"
         height="1"
         x="2"
         y="3"
         fill="#ffffff"
         id="rect877" />
      <rect
         width="1"
         height="1"
         x="3"
         y="3"
         fill="#ffffff"
         id="rect879" />
      <rect
         width="1"
         height="1.5"
         x="3"
         y="3"
         fill="#ffffff"
         id="rect881" />
      <rect
         width="1"
         height="1"
         x="1"
         y="4"
         fill="#ffffff"
         id="rect883" />
      <rect
         width="1"
         height="1.5"
         x="1"
         y="4"
         fill="#ffffff"
         id="rect885" />
      <rect
         width="1"
         height="1"
         x="3"
         y="4"
         fill="#ffffff"
         id="rect887" />
      <rect
         width="1"
         height="1.5"
         x="3"
         y="4"
         fill="#ffffff"
         id="rect889" />
      <rect
         width="1"
         height="1"
         x="5"
         y="4"
         fill="#ffffff"
         id="rect891" />
      <rect
         width="1.5"
         height="1"
         x="1"
         y="5"
         fill="#ffffff"
         id="rect893" />
      <rect
         width="1.5"
         height="1"
         x="2"
         y="5"
         fill="#ffffff"
         id="rect895" />
      <rect
         width="1"
         height="1"
         x="3"
         y="5"
         fill="#ffffff"
         id="rect897" />
    </g>
    <g
       style="shape-rendering:crispEdges"
       id="g1129"
       transform="matrix(3.1428571,0,0,3.1428571,75,50)">
      <rect
         x="0"
         y="0"
         width="7"
         height="7"
         fill="#000000"
         id="rect1081" />
      <rect
         width="1"
         height="1"
         x="5"
         y="1"
         fill="#ffffff"
         id="rect1083" />
      <rect
         width="1.5"
         height="1"
         x="1"
         y="2"
         fill="#ffffff"
         id="rect1085" />
      <rect
         width="1"
         height="1"
         x="2"
         y="2"
         fill="#ffffff"
         id="rect1087" />
      <rect
         width="1"
         height="1"
         x="5"
         y="3"
         fill="#ffffff"
         id="rect1089" />
      <rect
         width="1"
         height="1.5"
         x="5"
         y="3"
         fill="#ffffff"
         id="rect1091" />
      <rect
         width="1"
         height="1"
         x="1"
         y="4"
         fill="#ffffff"
         id="rect1093" />
      <rect
         width="1.5"
         height="1"
         x="3"
         y="4"
         fill="#ffffff"
         id="rect1095" />
      <rect
         width="1"
         height="1.5"
         x="3"
         y="4"
         fill="#ffffff"
         id="rect1097" />
      <rect
         width="1.5"
         height="1"
         x="4"
         y="4"
         fill="#ffffff"
         id="rect1099" />
      <rect
         width="1"
         height="1.5"
         x="4"
         y="4"
         fill="#ffffff"
         id="rect1101" />
      <rect
         width="1"
         height="1"
         x="5"
         y="4"
         fill="#ffffff"
         id="rect1103" />
      <rect
         width="1.5"
         height="1"
         x="3"
         y="5"
         fill="#ffffff"
         id="rect1105" />
      <rect
         width="1"
         height="1"
         x="4"
         y="5"
         fill="#ffffff"
         id="rect1107" />
    </g>
    <g
       style="shape-rendering:crispEdges"
       id="g1263"
       transform="matrix(3.1428571,0,0,3.1428571,50,75)">
      <rect
         x="0"
         y="0"
         width="7"
         height="7"
         fill="#000000"
         id="rect1185" />
      <rect
         width="1.5"
         height="1"
         x="1"
         y="1"
         fill="#ffffff"
         id="rect1187" />
      <rect
         width="1"
         height="1.5"
         x="1"
         y="1"
         fill="#ffffff"
         id="rect1189" />
      <rect
         width="1"
         height="1"
         x="2"
         y="1"
         fill="#ffffff"
         id="rect1191" />
      <rect
         width="1"
         height="1.5"
         x="2"
         y="1"
         fill="#ffffff"
         id="rect1193" />
      <rect
         width="1"
         height="1"
         x="4"
         y="1"
         fill="#ffffff"
         id="rect1195" />
      <rect
         width="1"
         height="1.5"
         x="4"
         y="1"
         fill="#ffffff"
         id="rect1197" />
      <rect
         width="1.5"
         height="1"
         x="1"
         y="2"
         fill="#ffffff"
         id="rect1199" />
      <rect
         width="1.5"
         height="1"
         x="2"
         y="2"
         fill="#ffffff"
         id="rect1201" />
      <rect
         width="1.5"
         height="1"
         x="3"
         y="2"
         fill="#ffffff"
         id="rect1203" />
      <rect
         width="1"
         height="1"
         x="4"
         y="2"
         fill="#ffffff"
         id="rect1205" />
      <rect
         width="1"
         height="1.5"
         x="4"
         y="2"
         fill="#ffffff"
         id="rect1207" />
      <rect
         width="1.5"
         height="1"
         x="4"
         y="3"
         fill="#ffffff"
         id="rect1209" />
      <rect
         width="1"
         height="1.5"
         x="4"
         y="3"
         fill="#ffffff"
         id="rect1211" />
      <rect
         width="1"
         height="1"
         x="5"
         y="3"
         fill="#ffffff"
         id="rect1213" />
      <rect
         width="1"
         height="1"
         x="1"
         y="4"
         fill="#ffffff"
         id="rect1215" />
      <rect
         width="1"
         height="1.5"
         x="1"
         y="4"
         fill="#ffffff"
         id="rect1217" />
      <rect
         width="1.5"
         height="1"
         x="3"
         y="4"
         fill="#ffffff"
         id="rect1219" />
      <rect
         width="1"
         height="1.5"
         x="3"
         y="4"
         fill="#ffffff"
         id="rect1221" />
      <rect
         width="1"
         height="1"
         x="4"
         y="4"
         fill="#ffffff"
         id="rect1223" />
      <rect
         width="1.5"
         height="1"
         x="1"
         y="5"
         fill="#ffffff"
         id="rect1225" />
      <rect
         width="1.5"
         height="1"
         x="2"
         y="5"
         fill="#ffffff"
         id="rect1227" />
      <rect
         width="1"
         height="1"
         x="3"
         y="5"
         fill="#ffffff"
         id="rect1229" />
      <rect
         width="1"
         height="1"
         x="5"
         y="5"
         fill="#ffffff"
         id="rect1231" />
    </g>
    <g
       style="shape-rendering:crispEdges"
       id="g1387"
       transform="matrix(3.1428571,0,0,3.1428571,75,75)">
      <rect
         x="0"
         y="0"
         width="7"
         height="7"
         fill="#000000"
         id="rect1315" />
      <rect
         width="1"
         height="1"
         x="1"
         y="1"
         fill="#ffffff"
         id="rect1317" />
      <rect
         width="1.5"
         height="1"
         x="3"
         y="2"
         fill="#ffffff"
         id="rect1319" />
      <rect
         width="1"
         height="1.5"
         x="3"
         y="2"
         fill="#ffffff"
         id="rect1321" />
      <rect
         width="1.5"
         height="1"
         x="4"
         y="2"
         fill="#ffffff"
         id="rect1323" />
      <rect
         width="1"
         height="1"
         x="5"
         y="2"
         fill="#ffffff"
         id="rect1325" />
      <rect
         width="1"
         height="1.5"
         x="5"
         y="2"
         fill="#ffffff"
         id="rect1327" />
      <rect
         width="1"
         height="1"
         x="3"
         y="3"
         fill="#ffffff"
         id="rect1329" />
      <rect
         width="1"
         height="1.5"
         x="3"
         y="3"
         fill="#ffffff"
         id="rect1331" />
      <rect
         width="1"
         height="1"
         x="5"
         y="3"
         fill="#ffffff"
         id="rect1333" />
      <rect
         width="1"
         height="1.5"
         x="5"
         y="3"
         fill="#ffffff"
         id="rect1335" />
      <rect
         width="1.5"
         height="1"
         x="2"
         y="4"
         fill="#ffffff"
         id="rect1337" />
      <rect
         width="1.5"
         height="1"
         x="3"
         y="4"
         fill="#ffffff"
         id="rect1339" />
      <rect
         width="1"
         height="1.5"
         x="3"
         y="4"
         fill="#ffffff"
         id="rect1341" />
      <rect
         width="1.5"
         height="1"
         x="4"
         y="4"
         fill="#ffffff"
         id="rect1343" />
      <rect
         width="1"
         height="1.5"
         x="4"
         y="4"
         fill="#ffffff"
         id="rect1345" />
      <rect
         width="1"
         height="1"
         x="5"
         y="4"
         fill="#ffffff"
         id="rect1347" />
      <rect
         width="1"
         height="1.5"
         x="5"
         y="4"
         fill="#ffffff"
         id="rect1349" />
      <rect
         width="1"
         height="1"
         x="1"
         y="5"
         fill="#ffffff"
         id="rect1351" />
      <rect
         width="1.5"
         height="1"
         x="3"
         y="5"
         fill="#ffffff"
         id="rect1353" />
      <rect
         width="1.5"
         height="1"
         x="4"
         y="5"
         fill="#ffffff"
         id="rect1355" />
      <rect
         width="1"
         height="1"
         x="5"
         y="5"
         fill="#ffffff"
         id="rect1357" />
    </g>
  </g>
</svg>
